<svg xmlns="http://www.w3.org/2000/svg" xmlns:xlink="http://www.w3.org/1999/xlink" width="500" zoomAndPan="magnify" viewBox="0 0 375 374.999991" height="500" preserveAspectRatio="xMidYMid meet" version="1.0"><defs><clipPath id="e1895f168d"><path d="M 74 316 L 183 316 L 183 371.660156 L 74 371.660156 Z M 74 316 " clip-rule="nonzero"/></clipPath><clipPath id="32a0405fc4"><path d="M 2 3.410156 L 373 3.410156 L 373 143 L 2 143 Z M 2 3.410156 " clip-rule="nonzero"/></clipPath><clipPath id="ea61f44477"><path d="M 34 69 L 341 69 L 341 371.660156 L 34 371.660156 Z M 34 69 " clip-rule="nonzero"/></clipPath></defs><g clip-path="url(#e1895f168d)"><path fill="#419eff" d="M 83.292969 316.597656 L 74.824219 371.640625 L 101.042969 371.640625 L 101.042969 355.914062 C 101.042969 351.570312 104.5625 348.050781 108.90625 348.050781 C 113.246094 348.050781 116.769531 351.570312 116.769531 355.914062 L 116.769531 371.640625 L 140.355469 371.640625 L 140.355469 355.914062 C 140.355469 351.570312 143.878906 348.050781 148.21875 348.050781 C 152.5625 348.050781 156.082031 351.570312 156.082031 355.914062 L 156.082031 371.640625 L 182.300781 371.640625 L 173.832031 316.597656 Z M 83.292969 316.597656 " fill-opacity="1" fill-rule="nonzero"/></g><path fill="#419eff" d="M 210.015625 246.136719 L 218.085938 260.894531 L 226.160156 246.136719 C 226.878906 244.816406 227.964844 243.730469 229.285156 243.011719 L 244.042969 234.9375 L 229.285156 226.867188 C 227.964844 226.144531 226.878906 225.058594 226.160156 223.738281 L 218.085938 208.980469 L 210.015625 223.738281 C 209.292969 225.058594 208.207031 226.144531 206.886719 226.867188 L 192.128906 234.9375 L 206.886719 243.011719 C 208.207031 243.730469 209.292969 244.816406 210.015625 246.136719 Z M 210.015625 246.136719 " fill-opacity="1" fill-rule="nonzero"/><path fill="#419eff" d="M 86.675781 294.597656 L 85.710938 300.871094 L 171.414062 300.871094 L 170.449219 294.597656 C 169.609375 289.121094 164.972656 285.144531 159.429688 285.144531 C 146.820312 285.144531 110.761719 285.144531 97.695312 285.144531 C 92.152344 285.144531 87.519531 289.121094 86.675781 294.597656 Z M 86.675781 294.597656 " fill-opacity="1" fill-rule="nonzero"/><path fill="#419eff" d="M 284.898438 198.917969 L 288.851562 206.148438 L 292.808594 198.917969 C 293.53125 197.597656 294.613281 196.515625 295.933594 195.792969 L 303.164062 191.839844 L 295.933594 187.886719 C 294.613281 187.164062 293.53125 186.078125 292.808594 184.761719 L 288.851562 177.53125 L 284.898438 184.761719 C 284.175781 186.078125 283.09375 187.164062 281.773438 187.886719 L 274.542969 191.839844 L 281.773438 195.792969 C 283.09375 196.515625 284.175781 197.597656 284.898438 198.917969 Z M 284.898438 198.917969 " fill-opacity="1" fill-rule="nonzero"/><path fill="#419eff" d="M 128.5625 167.199219 C 124.226562 167.199219 120.699219 170.726562 120.699219 175.0625 L 120.699219 269.417969 L 136.425781 269.417969 L 136.425781 175.0625 C 136.425781 170.726562 132.898438 167.199219 128.5625 167.199219 Z M 128.5625 167.199219 " fill-opacity="1" fill-rule="nonzero"/><g clip-path="url(#32a0405fc4)"><path fill="#419eff" d="M 364.40625 111.71875 L 187.535156 3.429688 L 10.664062 111.71875 C 0.128906 118.167969 0.0390625 133.6875 10.894531 140.097656 C 15.992188 143.105469 22.125 143.195312 27.308594 140.335938 L 183.738281 54.046875 C 186.101562 52.742188 188.972656 52.742188 191.335938 54.046875 L 347.765625 140.335938 C 352.949219 143.195312 359.082031 143.105469 364.179688 140.097656 C 375.03125 133.691406 374.945312 118.171875 364.40625 111.71875 Z M 364.40625 111.71875 " fill-opacity="1" fill-rule="nonzero"/></g><path fill="#419eff" d="M 81.382812 25.664062 L 49.933594 25.664062 L 49.933594 69.238281 L 81.382812 49.980469 Z M 81.382812 25.664062 " fill-opacity="1" fill-rule="nonzero"/><g clip-path="url(#ea61f44477)"><path fill="#419eff" d="M 34.207031 154.460938 L 34.207031 371.640625 L 58.914062 371.640625 L 71.132812 292.207031 C 73.164062 279.003906 84.335938 269.417969 97.695312 269.417969 L 104.972656 269.417969 L 104.972656 175.0625 C 104.972656 162.054688 115.554688 151.472656 128.5625 151.472656 C 141.570312 151.472656 152.152344 162.054688 152.152344 175.0625 L 152.152344 269.417969 L 159.429688 269.417969 C 172.792969 269.417969 183.960938 279.003906 185.992188 292.207031 L 198.214844 371.640625 L 340.867188 371.640625 L 340.867188 154.460938 C 339.386719 153.691406 229.726562 93.179688 187.535156 69.910156 C 144.894531 93.429688 35.703125 153.679688 34.207031 154.460938 Z M 254.382812 184.941406 L 272.207031 175.191406 L 281.953125 157.367188 C 284.933594 151.921875 292.773438 151.925781 295.753906 157.367188 L 305.5 175.191406 L 323.324219 184.941406 C 328.769531 187.917969 328.769531 195.761719 323.324219 198.738281 L 305.5 208.484375 L 295.753906 226.308594 C 292.773438 231.757812 284.933594 231.753906 281.953125 226.308594 L 272.207031 208.484375 L 254.382812 198.738281 C 248.9375 195.757812 248.941406 187.917969 254.382812 184.941406 Z M 211.1875 188.820312 C 214.164062 183.375 222.007812 183.375 224.984375 188.820312 L 238.851562 214.175781 L 264.203125 228.039062 C 269.648438 231.019531 269.648438 238.859375 264.203125 241.835938 L 238.851562 255.703125 L 224.984375 281.054688 C 222.007812 286.503906 214.164062 286.5 211.1875 281.054688 L 197.320312 255.703125 L 171.96875 241.835938 C 166.523438 238.859375 166.523438 231.015625 171.96875 228.039062 L 197.320312 214.175781 Z M 211.1875 188.820312 " fill-opacity="1" fill-rule="nonzero"/></g></svg>